<svg width="110" height="57" fill="none" xmlns="http://www.w3.org/2000/svg"><g clip-path="url(#clip0_19_2506)"><mask id="a" style="mask-type:luminance" maskUnits="userSpaceOnUse" x="0" y="0" width="110" height="57"><path d="M110 .33H0v56.34h110V.33z" fill="#fff"/></mask><g mask="url(#a)"><path d="M83.118 26.837h-13.47a14.761 14.761 0 0 0-3.594-8.103l8.988-10.008c4.641 4.724 7.673 11.055 8.076 18.11z" fill="#34BCEE"/><path d="M110 30.177l-14.407 14.42H78.127C73.03 51.896 64.578 56.67 55 56.67s-18.03-4.774-23.1-12.073H14.407L0 30.177h26.883a33.655 33.655 0 0 1-.054-1.677C26.83 12.939 39.44.329 55 .329a27.872 27.872 0 0 1 17.547 6.17l-8.989 9.982A14.709 14.709 0 0 0 55 13.744c-8.157 0-14.755 6.6-14.755 14.756S46.844 43.257 55 43.257c7.593 0 13.817-5.702 14.649-13.08H110z" fill="#fff"/></g></g><defs><clipPath id="clip0_19_2506"><path fill="#fff" transform="translate(0 .33)" d="M0 0H110V56.342H0z"/></clipPath></defs></svg>